<svg xmlns="http://www.w3.org/2000/svg" viewBox="0 0 200 250"><defs><style>.cls-1{fill:#e52421;}.cls-2{fill:#fff;}.cls-3{fill:#a51c19;}.cls-4{fill:#f1896d;}.cls-5{fill:none;stroke:#e52421;stroke-linecap:round;stroke-miterlimit:10;stroke-width:4.2px;}</style></defs><title>logo</title><g id="Lag_2" data-name="Lag 2"><path class="cls-1" d="M183.5,155.3a80.76,80.76,0,0,1-82.79,80.79c-39.66-1-72.47-31-78-69.29a78.19,78.19,0,0,1-.83-10.55c-.19-17,6.91-37.33,15.66-50.41S48.25,82,48.33,66.39c0-.58,0-1.17,0-1.76a52.89,52.89,0,0,1,105.75,2c0,.58,0,1.14,0,1.71a56.56,56.56,0,0,0,12.07,36.92A80.44,80.44,0,0,1,183.5,155.3Z"/><path class="cls-2" d="M182.3,169.23a80.84,80.84,0,0,1-81.59,66.86c-39.66-1-72.47-31-78-69.29a82.3,82.3,0,0,1,159.58,2.43Z"/><path class="cls-2" d="M140.4,65.68c0,.65,0,1.31-.05,2a38,38,0,0,1-11.74,25.64A38.17,38.17,0,0,1,64.05,67.63c0-.65,0-1.3,0-1.95a38.2,38.2,0,0,1,38.2-38.2h.93A38.19,38.19,0,0,1,140.4,65.68Z"/><path class="cls-3" d="M103.18,29.44A38.19,38.19,0,0,1,65,67.64h-.93c0-.65,0-1.3,0-1.95a38.2,38.2,0,0,1,38.2-38.2h.93C103.16,28.13,103.18,28.78,103.18,29.44Z"/><path class="cls-3" d="M140.4,65.68c0,.65,0,1.31-.05,2a38.19,38.19,0,0,1-38.15-38.2c0-.66,0-1.32,0-2h.88A38.19,38.19,0,0,1,140.4,65.68Z"/><path class="cls-4" d="M81.63,84.78a11.23,11.23,0,0,1-4.95,9.32A38.18,38.18,0,0,1,65.1,74.83a11,11,0,0,1,5.27-1.32A11.27,11.27,0,0,1,81.63,84.78Z"/><path class="cls-4" d="M139.48,74.07a38.05,38.05,0,0,1-10.87,19.21,11.26,11.26,0,0,1,10.87-19.21Z"/><path class="cls-1" d="M101.55,106.39c1.44,14.3-10,27.16-25.5,28.73a29.72,29.72,0,0,1-7.79-.22c-.05-.34-.09-.68-.13-1-1.44-14.29,10-27.16,25.5-28.73a30.16,30.16,0,0,1,7.79.22C101.47,105.7,101.51,106.05,101.55,106.39Z"/><path class="cls-1" d="M101.41,105.31c14-3.25,28.21,6.43,31.74,21.63a29.92,29.92,0,0,1,.78,7.76l-1,.25c-14,3.26-28.21-6.43-31.74-21.62a30,30,0,0,1-.78-7.76Z"/><path class="cls-1" d="M107.1,86.82a2.36,2.36,0,0,1-1,1.84l-4.41,3.57L97.3,88.66a2.36,2.36,0,0,1-1-1.84,2.87,2.87,0,0,1,3.12-2.53,3.47,3.47,0,0,1,2.27.79,3.49,3.49,0,0,1,2.27-.79A2.87,2.87,0,0,1,107.1,86.82Z"/><g id="blomst"><path class="cls-1" d="M126.18,214.26a16.45,16.45,0,0,1-21,15.83c0-.22,0-.44,0-.66a16.46,16.46,0,0,1,21-15.83C126.18,213.82,126.18,214,126.18,214.26Z"/><path class="cls-1" d="M77.51,214.26a16.46,16.46,0,0,0,21,15.83c0-.22,0-.44,0-.66a16.46,16.46,0,0,0-21-15.83C77.51,213.82,77.51,214,77.51,214.26Z"/><path class="cls-1" d="M41.5,175.56A16.47,16.47,0,0,0,64.66,178a16.24,16.24,0,0,0,3.1-3.33l-.41-.52a16.45,16.45,0,0,0-23.15-2.41,15.72,15.72,0,0,0-3.1,3.33Z"/><path class="cls-1" d="M138,175.56A16.45,16.45,0,0,0,161.17,178a16,16,0,0,0,3.1-3.33c-.13-.17-.26-.35-.4-.52a16.47,16.47,0,0,0-23.16-2.41,16,16,0,0,0-3.1,3.33Z"/><path class="cls-4" d="M57.81,134.09a10.51,10.51,0,0,0,13.38,10.1c0-.14,0-.28,0-.42a10.52,10.52,0,0,0-10.51-10.51,10.06,10.06,0,0,0-2.87.41C57.81,133.81,57.81,134,57.81,134.09Z"/><path class="cls-4" d="M59.49,213.43A10.51,10.51,0,0,1,70,202.92a10.18,10.18,0,0,1,2.88.41c0,.14,0,.28,0,.42a10.52,10.52,0,0,1-13.39,10.1Z"/><path class="cls-4" d="M145.05,134.09a10.51,10.51,0,0,1-13.38,10.1c0-.14,0-.28,0-.42a10.52,10.52,0,0,1,10.51-10.51,10.06,10.06,0,0,1,2.87.41C145.05,133.81,145.05,134,145.05,134.09Z"/><path class="cls-4" d="M145.05,213.43a10.51,10.51,0,0,0-10.5-10.51,10.18,10.18,0,0,0-2.88.41c0,.14,0,.28,0,.42A10.51,10.51,0,0,0,145,213.85C145.05,213.71,145.05,213.57,145.05,213.43Z"/><circle class="cls-4" cx="87.16" cy="160.23" r="14.69"/><circle class="cls-4" cx="116.53" cy="160.23" r="14.69"/><circle class="cls-4" cx="116.53" cy="188.76" r="14.69"/><circle class="cls-4" cx="87.16" cy="188.76" r="14.69"/><circle class="cls-1" cx="102.27" cy="174.49" r="24.76"/><circle class="cls-3" cx="102.27" cy="174.49" r="14.69"/><line class="cls-5" x1="101.85" y1="199.25" x2="101.85" y2="229.46"/></g></g></svg>
