<?xml version="1.0" standalone="no"?>
<!DOCTYPE svg PUBLIC "-//W3C//DTD SVG 20010904//EN"
 "http://www.w3.org/TR/2001/REC-SVG-20010904/DTD/svg10.dtd">
<svg version="1.0" xmlns="http://www.w3.org/2000/svg"
 width="261.000000pt" height="261.000000pt" viewBox="0 0 261.000000 261.000000"
 preserveAspectRatio="xMidYMid meet">
<metadata>
Created by potrace 1.11, written by Peter Selinger 2001-2013
</metadata>
<g transform="translate(0.000000,261.000000) scale(0.100000,-0.100000)"
fill="#000000" stroke="none">
<path d="M1151 2424 c-225 -60 -391 -273 -391 -504 0 -82 -16 -191 -36 -251
-8 -25 -40 -88 -71 -140 -62 -105 -106 -204 -128 -291 -24 -89 -36 -208 -29
-263 l7 -50 17 50 c56 164 196 337 348 429 50 30 206 96 228 96 3 0 -14 -15
-38 -33 -59 -45 -97 -117 -98 -184 l0 -53 58 0 c102 0 201 61 246 151 l25 51
16 -38 c23 -56 61 -101 108 -128 52 -31 125 -48 167 -39 32 6 32 6 28 57 -6
66 -32 121 -85 174 -23 23 -38 42 -32 42 24 0 140 -45 199 -77 178 -97 315
-255 381 -443 25 -70 28 -73 34 -46 11 42 -2 231 -20 301 -22 80 -84 207 -135
275 -91 120 -119 199 -130 361 -11 153 -23 204 -68 292 -63 123 -185 221 -320
258 -80 23 -204 24 -281 3z m204 -344 c57 -90 165 -158 278 -175 45 -7 48 -9
45 -34 -2 -21 -9 -27 -33 -29 -46 -4 -82 -22 -99 -46 -23 -37 -24 -91 -2 -122
14 -19 15 -18 43 6 15 13 8 3 -17 -23 -94 -100 -243 -141 -376 -102 -66 19
-138 61 -175 102 -17 20 -18 23 -3 10 29 -24 40 -22 58 17 21 44 20 64 -4 103
-26 43 -54 56 -106 50 -38 -4 -44 -2 -44 13 0 10 -3 25 -6 34 -5 12 1 16 22
16 41 0 122 23 173 50 66 33 134 108 167 184 l28 65 14 -41 c8 -23 24 -58 37
-78z m-364 -377 c13 -16 12 -17 -3 -4 -17 13 -22 21 -14 21 2 0 10 -8 17 -17z"/>
<path d="M1243 1724 c-5 -15 32 -64 49 -64 5 0 21 12 35 26 32 32 20 47 -38
50 -28 2 -42 -2 -46 -12z"/>
<path d="M860 1219 c0 -32 53 -79 89 -79 41 0 42 31 2 71 -37 36 -91 41 -91 8z"/>
<path d="M1628 1213 c-14 -16 -28 -38 -31 -50 -5 -21 -1 -23 30 -23 40 0 93
45 93 79 0 33 -59 29 -92 -6z"/>
<path d="M1075 1101 c-70 -42 -92 -139 -47 -200 13 -18 22 -45 22 -66 0 -21
-9 -48 -22 -66 -47 -63 -20 -167 52 -204 40 -21 99 -19 138 5 18 11 37 20 42
20 5 0 11 -67 12 -157 3 -141 5 -158 21 -161 16 -3 17 9 17 153 0 131 2 157
15 162 9 3 24 -2 35 -12 28 -26 100 -31 143 -10 70 33 98 126 60 198 -23 44
-23 95 -1 139 55 112 -20 229 -139 215 -24 -2 -52 -12 -62 -21 -25 -23 -103
-21 -143 4 -41 25 -104 26 -143 1z"/>
<path d="M755 886 c-16 -7 -39 -23 -50 -36 l-20 -22 31 -28 c55 -49 151 -48
209 3 34 29 26 50 -29 77 -48 23 -98 25 -141 6z"/>
<path d="M1709 881 c-19 -11 -42 -27 -49 -36 -13 -15 -11 -20 13 -41 62 -53
156 -53 215 1 l35 32 -37 28 c-49 37 -125 44 -177 16z"/>
<path d="M928 534 c-26 -14 -58 -60 -58 -84 0 -5 14 -10 31 -10 22 0 41 10 65
34 60 60 34 100 -38 60z"/>
<path d="M1597 543 c-10 -17 22 -72 52 -87 69 -36 96 -3 44 54 -28 30 -86 50
-96 33z"/>
<path d="M1050 425 c0 -85 114 -174 191 -150 18 6 20 12 16 42 -12 74 -86 133
-166 133 -37 0 -41 -2 -41 -25z"/>
<path d="M1430 439 c-52 -21 -100 -84 -100 -133 0 -33 13 -39 66 -31 59 8 120
61 134 116 6 22 8 44 5 49 -8 13 -72 12 -105 -1z"/>
</g>
</svg>
