<svg xmlns="http://www.w3.org/2000/svg" viewBox="0 0 100 100"><defs><style>.cls-1{fill:#e52421;stroke:#e52421;stroke-miterlimit:10;stroke-width:1.44px;}</style></defs><title>fb</title><g id="Lag_2" data-name="Lag 2"><path class="cls-1" d="M77.28,2.5H22.78A20.22,20.22,0,0,0,2.56,22.72v54.5A20.22,20.22,0,0,0,22.78,97.44h28.8V47.59H41.49V36.37H51.58V31.65a18.28,18.28,0,0,1,5.1-13.35q5.12-5.19,15.44-5.2c1.5,0,3,.06,4.51.18s3,.22,4.4.3V25.05a52.05,52.05,0,0,0-6.18-.82c-2.3,0-3.73.06-4.93,1.59-1.8,2.31-1.48,4.37-1.48,6.89v3.66H80.08L77.22,47.82l-8.78-.23V97.44h8.84A20.22,20.22,0,0,0,97.5,77.22V22.72A20.22,20.22,0,0,0,77.28,2.5Z"/></g></svg>
