<svg xmlns="http://www.w3.org/2000/svg" viewBox="0 0 600 500"><defs><style>.cls-1{fill:#e52421;}.cls-2{fill:#fff;}.cls-3{fill:#a51c19;}.cls-4{fill:#f1896d;}.cls-5,.cls-6{fill:none;stroke-miterlimit:10;}.cls-5{stroke:#e52421;stroke-linecap:round;stroke-width:4.2px;}.cls-6{stroke:#000;}</style></defs><title>logo_1</title><g id="Lag_2" data-name="Lag 2"><path d="M155.76,478.11V445.17h9.45a19.11,19.11,0,0,1,4.45.47,9,9,0,0,1,3.4,1.53,7,7,0,0,1,2.18,2.69,9.48,9.48,0,0,1,.77,4,8.36,8.36,0,0,1-2.27,6.21,10.42,10.42,0,0,1-6.18,2.75l9.1,15.29H174L165.06,463h-7v15.15Zm2.3-17h6.55c2.93,0,5.18-.6,6.73-1.78a6.39,6.39,0,0,0,2.32-5.43q0-3.69-2.35-5.22a12.28,12.28,0,0,0-6.7-1.53h-6.55Z"/><path d="M189.61,478.71q-3.75,0-5.5-2.25c-1.17-1.5-1.75-3.81-1.75-6.95v-15.4h2.2v15.1c0,2.57.42,4.46,1.28,5.68a4.72,4.72,0,0,0,4.17,1.82,6.88,6.88,0,0,0,3.9-1.17,19.17,19.17,0,0,0,3.85-3.72V454.11H200v24h-1.85l-.25-4h-.1a16.36,16.36,0,0,1-3.7,3.35A8,8,0,0,1,189.61,478.71Z"/><path d="M215,478.71a12.32,12.32,0,0,1-5-1,15.5,15.5,0,0,1-3.85-2.32l1.3-1.66a16.4,16.4,0,0,0,3.3,2.18,9.74,9.74,0,0,0,4.35.88,5.82,5.82,0,0,0,4.28-1.43,4.59,4.59,0,0,0,1.42-3.32,3.66,3.66,0,0,0-.52-2,5,5,0,0,0-1.38-1.44,10.93,10.93,0,0,0-1.87-1.06c-.69-.29-1.38-.58-2.08-.85q-1.35-.5-2.73-1.05a11.61,11.61,0,0,1-2.47-1.32,6.65,6.65,0,0,1-1.78-1.85,4.93,4.93,0,0,1-.67-2.62,6.32,6.32,0,0,1,.5-2.48,5.55,5.55,0,0,1,1.5-2.05,7.62,7.62,0,0,1,2.42-1.38,10.19,10.19,0,0,1,3.33-.5,10.49,10.49,0,0,1,3.73.7,11,11,0,0,1,3.12,1.8l-1.2,1.56a13.79,13.79,0,0,0-2.55-1.53,7.52,7.52,0,0,0-3.2-.62,6.88,6.88,0,0,0-2.4.37,5.1,5.1,0,0,0-1.67,1,3.73,3.73,0,0,0-1,1.41,4.12,4.12,0,0,0-.33,1.59,3.15,3.15,0,0,0,.48,1.78,4.68,4.68,0,0,0,1.27,1.28,9.83,9.83,0,0,0,1.83,1c.68.28,1.37.56,2.07.82l2.8,1.1a11.74,11.74,0,0,1,2.53,1.36,6.46,6.46,0,0,1,1.82,2,5.59,5.59,0,0,1,.7,2.92,6.5,6.5,0,0,1-.52,2.58,6,6,0,0,1-1.58,2.15,8,8,0,0,1-2.55,1.48A10.16,10.16,0,0,1,215,478.71Z"/><path d="M235.21,478.71a12.32,12.32,0,0,1-5-1,15.5,15.5,0,0,1-3.85-2.32l1.3-1.66a16.4,16.4,0,0,0,3.3,2.18,9.74,9.74,0,0,0,4.35.88,5.82,5.82,0,0,0,4.28-1.43,4.59,4.59,0,0,0,1.42-3.32,3.66,3.66,0,0,0-.52-2,5,5,0,0,0-1.38-1.44,10.93,10.93,0,0,0-1.87-1.06c-.69-.29-1.38-.58-2.08-.85q-1.35-.5-2.73-1.05a11.61,11.61,0,0,1-2.47-1.32,6.65,6.65,0,0,1-1.78-1.85,4.93,4.93,0,0,1-.67-2.62,6.32,6.32,0,0,1,.5-2.48,5.55,5.55,0,0,1,1.5-2.05A7.62,7.62,0,0,1,232,454a10.19,10.19,0,0,1,3.33-.5,10.49,10.49,0,0,1,3.73.7,11,11,0,0,1,3.12,1.8l-1.2,1.56a13.79,13.79,0,0,0-2.55-1.53,7.52,7.52,0,0,0-3.2-.62,6.88,6.88,0,0,0-2.4.37,5.1,5.1,0,0,0-1.67,1,3.73,3.73,0,0,0-1,1.41,4.12,4.12,0,0,0-.33,1.59,3.15,3.15,0,0,0,.48,1.78,4.68,4.68,0,0,0,1.27,1.28,9.83,9.83,0,0,0,1.83,1c.68.28,1.37.56,2.07.82l2.8,1.1a11.74,11.74,0,0,1,2.53,1.36,6.46,6.46,0,0,1,1.82,2,5.59,5.59,0,0,1,.7,2.92,6.5,6.5,0,0,1-.52,2.58,6,6,0,0,1-1.58,2.15,8,8,0,0,1-2.55,1.48A10.16,10.16,0,0,1,235.21,478.71Z"/><path d="M250.81,448.32a2,2,0,0,1-1.42-.56,1.82,1.82,0,0,1-.58-1.4,1.87,1.87,0,0,1,.58-1.47,2.17,2.17,0,0,1,2.84,0,1.87,1.87,0,0,1,.58,1.47,1.82,1.82,0,0,1-.58,1.4A2,2,0,0,1,250.81,448.32Zm-1.15,29.79v-24h2.2v24Z"/><path d="M266.36,478.71a9,9,0,0,1-2.7-.39,6.37,6.37,0,0,1-2.2-1.21,5.59,5.59,0,0,1-1.5-2,7.27,7.27,0,0,1-.55-3,6.59,6.59,0,0,1,3.72-6.07q3.74-2.07,11.78-3a19.51,19.51,0,0,0-.2-2.73,6.48,6.48,0,0,0-.85-2.45,5.14,5.14,0,0,0-1.75-1.75,5.48,5.48,0,0,0-2.9-.68,10,10,0,0,0-4.4,1,21.84,21.84,0,0,0-3.25,1.84l-1-1.65c.43-.29,1-.63,1.57-1a16.13,16.13,0,0,1,2.08-1,21.69,21.69,0,0,1,2.5-.77,11.73,11.73,0,0,1,2.8-.33,7.93,7.93,0,0,1,3.55.73,6.29,6.29,0,0,1,2.35,2,8.32,8.32,0,0,1,1.3,2.93,15.38,15.38,0,0,1,.4,3.62v15.35h-1.9L275,475h-.15a26.09,26.09,0,0,1-4,2.58A9.49,9.49,0,0,1,266.36,478.71Zm.4-1.89a8.56,8.56,0,0,0,4-1,24.2,24.2,0,0,0,4.15-2.9v-8.16a53,53,0,0,0-6.25,1.1,16.46,16.46,0,0,0-4.1,1.56,6,6,0,0,0-2.23,2,5,5,0,0,0-.67,2.55,5.34,5.34,0,0,0,.4,2.2,3.86,3.86,0,0,0,1.1,1.48,4.65,4.65,0,0,0,1.62.85A7.07,7.07,0,0,0,266.76,476.82Z"/><path d="M285.66,478.11v-24h1.9l.2,3.71h.15a21.58,21.58,0,0,1,3.8-3.08,8.16,8.16,0,0,1,4.45-1.23q3.75,0,5.5,2.25t1.75,6.95v15.4h-2.2V463q0-3.84-1.28-5.67a4.77,4.77,0,0,0-4.22-1.83,7.08,7.08,0,0,0-3.9,1.13,23.73,23.73,0,0,0-3.95,3.37v18.1Z"/><path d="M322.51,478.11V445.17h8.9a14.43,14.43,0,0,1,7.95,1.92q3,1.92,2.95,6.08a7.85,7.85,0,0,1-1.3,4.52,6.75,6.75,0,0,1-3.8,2.67v.21a9.14,9.14,0,0,1,5.15,2.52,7.38,7.38,0,0,1,1.95,5.42,9.41,9.41,0,0,1-.88,4.2,7.92,7.92,0,0,1-2.47,3,11.14,11.14,0,0,1-3.85,1.8,19.17,19.17,0,0,1-5.05.6Zm2.3-18.44h5.7q5.06,0,7.27-1.68a5.4,5.4,0,0,0,2.23-4.57q0-3.51-2.35-4.93t-6.9-1.42h-5.95Zm0,16.54h6.65c3.3,0,5.89-.61,7.77-1.85a6.41,6.41,0,0,0,2.83-5.79,5.81,5.81,0,0,0-2.75-5.31q-2.74-1.69-7.85-1.69h-6.65Z"/><path d="M352.31,448.32a2,2,0,0,1-1.43-.56,1.85,1.85,0,0,1-.57-1.4,1.9,1.9,0,0,1,.57-1.47,2.06,2.06,0,0,1,1.43-.53,2,2,0,0,1,1.42.53,1.87,1.87,0,0,1,.58,1.47,1.82,1.82,0,0,1-.58,1.4A2,2,0,0,1,352.31,448.32Zm-1.15,29.79v-24h2.2v24Z"/><path d="M368.41,478.71a12.32,12.32,0,0,1-5-1,15.32,15.32,0,0,1-3.85-2.32l1.3-1.66a16.4,16.4,0,0,0,3.3,2.18,9.68,9.68,0,0,0,4.35.88,5.79,5.79,0,0,0,4.27-1.43,4.56,4.56,0,0,0,1.43-3.32,3.66,3.66,0,0,0-.53-2,5.07,5.07,0,0,0-1.37-1.44,10.65,10.65,0,0,0-1.88-1.06c-.68-.29-1.37-.58-2.07-.85q-1.35-.5-2.73-1.05a11.61,11.61,0,0,1-2.47-1.32,6.38,6.38,0,0,1-1.78-1.85,4.84,4.84,0,0,1-.67-2.62,6.14,6.14,0,0,1,.5-2.48,5.55,5.55,0,0,1,1.5-2.05,7.4,7.4,0,0,1,2.42-1.38,10.14,10.14,0,0,1,3.33-.5,10.44,10.44,0,0,1,3.72.7,10.93,10.93,0,0,1,3.13,1.8l-1.2,1.56a13.79,13.79,0,0,0-2.55-1.53,7.52,7.52,0,0,0-3.2-.62,6.8,6.8,0,0,0-2.4.37,5.26,5.26,0,0,0-1.68,1,3.84,3.84,0,0,0-1,1.41,4.3,4.3,0,0,0-.32,1.59,3.23,3.23,0,0,0,.47,1.78,4.72,4.72,0,0,0,1.28,1.28,10.06,10.06,0,0,0,1.82,1c.69.28,1.38.56,2.08.82l2.8,1.1a11.67,11.67,0,0,1,2.52,1.36,6.49,6.49,0,0,1,1.83,2,5.69,5.69,0,0,1,.7,2.92,6.51,6.51,0,0,1-.53,2.58,6,6,0,0,1-1.57,2.15,8,8,0,0,1-2.55,1.48A10.16,10.16,0,0,1,368.41,478.71Z"/><path d="M388.41,478.71a7,7,0,0,1-2.9-.52,4.53,4.53,0,0,1-1.85-1.48,5.75,5.75,0,0,1-1-2.29,15.21,15.21,0,0,1-.27-3V456h-3.75v-1.69l3.8-.21.3-6.94h1.9v6.94h6.95V456h-6.95v15.66a11.87,11.87,0,0,0,.17,2.07,4.33,4.33,0,0,0,.63,1.6,3,3,0,0,0,1.22,1.05,4.69,4.69,0,0,0,2,.37,5.81,5.81,0,0,0,1.52-.22,9.79,9.79,0,0,0,1.48-.53l.6,1.81a16.81,16.81,0,0,1-2.1.64A7.78,7.78,0,0,1,388.41,478.71Z"/><path d="M397.46,478.11v-24h1.9l.2,4.46h.15a11.67,11.67,0,0,1,2.92-3.65,6,6,0,0,1,3.88-1.41,7.82,7.82,0,0,1,1.25.1,4.94,4.94,0,0,1,1.15.4l-.5,2a5.25,5.25,0,0,0-1.05-.32,7.2,7.2,0,0,0-1.15-.08,5.61,5.61,0,0,0-3.38,1.38,11.51,11.51,0,0,0-3.17,4.77v16.35Z"/><path d="M421.56,478.71a10.22,10.22,0,0,1-7.53-3.29,12.12,12.12,0,0,1-2.35-3.93,15.1,15.1,0,0,1-.87-5.32,15.57,15.57,0,0,1,.87-5.38,11.91,11.91,0,0,1,2.35-4,10.14,10.14,0,0,1,7.53-3.31,10.41,10.41,0,0,1,4.12.85,10,10,0,0,1,3.45,2.46,11.58,11.58,0,0,1,2.35,4,15.56,15.56,0,0,1,.88,5.38,15.1,15.1,0,0,1-.88,5.32,11.78,11.78,0,0,1-2.35,3.93,10,10,0,0,1-3.45,2.44A10.24,10.24,0,0,1,421.56,478.71Zm0-1.95a7.47,7.47,0,0,0,3.37-.77,8,8,0,0,0,2.7-2.17,11,11,0,0,0,1.78-3.36,13.55,13.55,0,0,0,.65-4.29,13.75,13.75,0,0,0-.65-4.35,11.07,11.07,0,0,0-1.78-3.38,7.83,7.83,0,0,0-2.7-2.2,7.48,7.48,0,0,0-3.37-.78,7.34,7.34,0,0,0-3.35.78,7.86,7.86,0,0,0-2.68,2.2,10.84,10.84,0,0,0-1.77,3.38,13.47,13.47,0,0,0-.65,4.35,13.27,13.27,0,0,0,.65,4.29,10.73,10.73,0,0,0,1.77,3.36,8,8,0,0,0,2.68,2.17A7.33,7.33,0,0,0,421.56,476.76Z"/><path class="cls-1" d="M375.21,171.83a80.76,80.76,0,0,1-82.79,80.79c-39.66-1-72.47-31-78-69.29a78.32,78.32,0,0,1-.83-10.55c-.19-17,6.91-37.33,15.67-50.42S240,98.53,240,82.92c0-.59,0-1.18,0-1.76a52.89,52.89,0,0,1,105.75,2c0,.58,0,1.15,0,1.72a56.63,56.63,0,0,0,12.07,36.92A80.42,80.42,0,0,1,375.21,171.83Z"/><path class="cls-2" d="M374,185.76a80.84,80.84,0,0,1-81.59,66.86c-39.66-1-72.47-31-78-69.29A82.29,82.29,0,0,1,374,185.76Z"/><path class="cls-2" d="M332.11,82.2c0,.66,0,1.32-.05,2a38.2,38.2,0,0,1-63.67,26.47,38.32,38.32,0,0,1-11.58-19.28,37.88,37.88,0,0,1-1.05-7.2c0-.64,0-1.29,0-2A38.21,38.21,0,0,1,293.91,44h.93A38.2,38.2,0,0,1,332.11,82.2Z"/><path class="cls-3" d="M294.89,46a37.23,37.23,0,0,1-.49,6.11,38.2,38.2,0,0,1-37.71,32.09h-.93c0-.64,0-1.29,0-2A38.21,38.21,0,0,1,293.91,44h.93C294.87,44.66,294.89,45.31,294.89,46Z"/><path class="cls-3" d="M332.11,82.2c0,.66,0,1.32-.05,2A38.19,38.19,0,0,1,293.91,46c0-.65,0-1.31,0-2h.88A38.2,38.2,0,0,1,332.11,82.2Z"/><path class="cls-4" d="M273.34,101.3a11.24,11.24,0,0,1-4.95,9.33,38.32,38.32,0,0,1-11.58-19.28A11.12,11.12,0,0,1,262.08,90,11.26,11.26,0,0,1,273.34,101.3Z"/><path class="cls-4" d="M331.19,90.6a38.13,38.13,0,0,1-10.87,19.21A11.26,11.26,0,0,1,327.71,90,11.13,11.13,0,0,1,331.19,90.6Z"/><path class="cls-1" d="M293.26,122.92c1.44,14.3-10,27.16-25.49,28.73a30.22,30.22,0,0,1-7.8-.22c0-.34-.09-.69-.13-1-1.44-14.3,10-27.16,25.5-28.73a29.72,29.72,0,0,1,7.79.22C293.18,122.23,293.22,122.57,293.26,122.92Z"/><path class="cls-1" d="M293.12,121.84c14-3.25,28.21,6.43,31.74,21.62a30,30,0,0,1,.78,7.76l-1,.26c-14,3.25-28.21-6.43-31.74-21.63a29.88,29.88,0,0,1-.78-7.75Z"/><path class="cls-1" d="M298.81,103.34a2.3,2.3,0,0,1-1,1.84l-4.41,3.58L289,105.18a2.32,2.32,0,0,1-1-1.84,2.87,2.87,0,0,1,3.12-2.53,3.47,3.47,0,0,1,2.26.8,3.5,3.5,0,0,1,2.27-.8A2.88,2.88,0,0,1,298.81,103.34Z"/><g id="blomst"><path class="cls-1" d="M317.9,230.79a16.46,16.46,0,0,1-21,15.83c0-.22,0-.44,0-.66a16.46,16.46,0,0,1,21-15.83C317.89,230.35,317.9,230.57,317.9,230.79Z"/><path class="cls-1" d="M269.22,230.79a16.46,16.46,0,0,0,21,15.83c0-.22,0-.44,0-.66a16.46,16.46,0,0,0-21-15.83C269.23,230.35,269.22,230.57,269.22,230.79Z"/><path class="cls-1" d="M233.21,192.09a16.45,16.45,0,0,0,26.26-.91c-.13-.18-.27-.35-.4-.52a16.45,16.45,0,0,0-26.26.91C232.94,191.75,233.07,191.92,233.21,192.09Z"/><path class="cls-1" d="M329.73,192.09a16.46,16.46,0,0,0,23.15,2.42,16.22,16.22,0,0,0,3.1-3.33c-.13-.18-.26-.35-.4-.52a16.48,16.48,0,0,0-23.16-2.42,16.79,16.79,0,0,0-3.1,3.33Z"/><path class="cls-4" d="M249.52,150.61a10.51,10.51,0,0,0,13.38,10.11c0-.14,0-.28,0-.42a10.51,10.51,0,0,0-13.38-10.11C249.52,150.33,249.52,150.47,249.52,150.61Z"/><path class="cls-4" d="M251.2,230a10.51,10.51,0,0,1,13.38-10.1c0,.14,0,.28,0,.42a10.52,10.52,0,0,1-10.51,10.51,10.06,10.06,0,0,1-2.87-.41C251.2,230.23,251.2,230.09,251.2,230Z"/><path class="cls-4" d="M336.76,150.61a10.51,10.51,0,0,1-13.38,10.11c0-.14,0-.28,0-.42a10.52,10.52,0,0,1,13.39-10.11Z"/><path class="cls-4" d="M336.76,230a10.51,10.51,0,0,0-13.38-10.1c0,.14,0,.28,0,.42a10.52,10.52,0,0,0,10.51,10.51,10.18,10.18,0,0,0,2.88-.41Z"/><circle class="cls-4" cx="278.87" cy="176.75" r="14.69"/><circle class="cls-4" cx="308.24" cy="176.75" r="14.69"/><circle class="cls-4" cx="308.24" cy="205.29" r="14.69"/><circle class="cls-4" cx="278.87" cy="205.29" r="14.69"/><circle class="cls-1" cx="293.98" cy="191.02" r="24.76"/><circle class="cls-3" cx="293.98" cy="191.02" r="14.69"/><line class="cls-5" x1="293.56" y1="215.78" x2="293.56" y2="245.99"/></g><path class="cls-1" d="M26,395.11V265.51H55.75A54.42,54.42,0,0,1,71,267.43a26.9,26.9,0,0,1,10.8,5.92,24.12,24.12,0,0,1,6.4,10.16A45.31,45.31,0,0,1,90.31,298a42.85,42.85,0,0,1-2,13.83,19.89,19.89,0,0,1-6.08,9.2,21,21,0,0,1-10.48,4.32,28.09,28.09,0,0,1,12.64,6,25.41,25.41,0,0,1,7.12,10.89,48.32,48.32,0,0,1,2.32,15.92,56.38,56.38,0,0,1-1.92,15.19,30.32,30.32,0,0,1-6,11.68,27,27,0,0,1-10.4,7.44,38.47,38.47,0,0,1-15,2.64Zm18.08-75.52H54.79q7.68,0,12-2.16a12.07,12.07,0,0,0,6.08-7A37,37,0,0,0,74.63,298q0-9-2.72-13t-8.48-5a86.92,86.92,0,0,0-15-1.05H44.07Zm0,62.57H56.23q12.17,0,16.24-5.69t4.08-18.31a37.81,37.81,0,0,0-2.16-13.69,16.12,16.12,0,0,0-6.88-8.31q-4.73-2.81-12.72-2.81H44.07Z"/><path class="cls-1" d="M125,396.39a15.55,15.55,0,0,1-9.6-3.12,21.79,21.79,0,0,1-6.56-8,23.06,23.06,0,0,1-2.4-10.32,33.12,33.12,0,0,1,2.88-14.56,29.11,29.11,0,0,1,7.92-10A54.59,54.59,0,0,1,129,343.27q6.63-3,14-5.92v-6.56a56.49,56.49,0,0,0-.64-9.28,9.45,9.45,0,0,0-2.64-5.51q-2-1.85-6-1.84a9.35,9.35,0,0,0-5.68,1.59,8.9,8.9,0,0,0-3.12,4.57,22.57,22.57,0,0,0-1,6.95v4.65l-17-.65q.31-15.36,7-22.64t20.8-7.28q13.76,0,19.52,7.52t5.76,21.76v42.24c0,2.88.08,5.66.24,8.32s.37,5.15.64,7.44.5,4.46.72,6.48H146q-.48-2.55-1.2-6.48t-1-7.12a24.6,24.6,0,0,1-6.16,10.16Q133,396.4,125,396.39Zm6.72-14.72a8.82,8.82,0,0,0,4.8-1.43,22.55,22.55,0,0,0,4-3.29A17.35,17.35,0,0,0,143,374V347.75q-4,2.25-7.52,4.49a41.32,41.32,0,0,0-6.16,4.71,19.19,19.19,0,0,0-4.16,5.6,16,16,0,0,0-1.52,7.12q0,5.61,2.08,8.8A6.77,6.77,0,0,0,131.75,381.67Z"/><path class="cls-1" d="M209.67,396.39a16.26,16.26,0,0,1-8.88-2.47,35.25,35.25,0,0,1-6.8-5.53v6.72H176.87V265.51H194V310a29.64,29.64,0,0,1,7.28-6.08,19.24,19.24,0,0,1,10.16-2.57q7.2,0,11.44,3.76a23.05,23.05,0,0,1,6.32,9.44,49.42,49.42,0,0,1,2.72,11.53,95.48,95.48,0,0,1,.64,10v22.39A85.73,85.73,0,0,1,230.63,377,29.65,29.65,0,0,1,223.75,391Q218.79,396.4,209.67,396.39ZM206.15,383c3,0,5.12-1.09,6.4-3.28a21.18,21.18,0,0,0,2.4-8.88q.48-5.6.48-12.32V336.08a83.53,83.53,0,0,0-.64-10.65,17,17,0,0,0-2.72-7.76q-2.08-2.88-6.56-2.88a14.12,14.12,0,0,0-6.32,1.45,28,28,0,0,0-5.2,3.19v59.36a20.31,20.31,0,0,0,5.36,3A18.76,18.76,0,0,0,206.15,383Z"/><path class="cls-1" d="M261.35,396.39q-5.44,0-8.48-2.88a15.35,15.35,0,0,1-4.24-7.19,32.84,32.84,0,0,1-1.2-8.81V302.63h17.12v69.76a17.25,17.25,0,0,0,1.44,7.77q1.44,2.79,5.92,2.79a12.66,12.66,0,0,0,6-1.68,35.53,35.53,0,0,0,6-4.08V302.63H301v92.48H283.91V386a45.72,45.72,0,0,1-10.16,7.35A25.84,25.84,0,0,1,261.35,396.39Z"/><path class="cls-1" d="M339.9,396.39q-11.36,0-18.24-7.12t-7.84-18.8l14.24-4.31q1.29,8.79,4.32,13.19t9,4.4c3.1,0,5.44-.88,7-2.64a10.17,10.17,0,0,0,2.4-7.11,14.66,14.66,0,0,0-1.76-7.21,23.92,23.92,0,0,0-5.76-6.55l-15.84-13.61a42.68,42.68,0,0,1-8.08-9.28q-3.27-5.12-3.28-13.27a24.18,24.18,0,0,1,3-12.41,19.36,19.36,0,0,1,8.32-7.67,28.13,28.13,0,0,1,12.56-2.65q11,0,16.88,7.12a30.11,30.11,0,0,1,6.64,17.2L351.9,330a40.83,40.83,0,0,0-1.92-8.41,13.14,13.14,0,0,0-3.52-5.59,9.5,9.5,0,0,0-12.56.79,9.71,9.71,0,0,0-2.48,6.64,11.55,11.55,0,0,0,1,4.73,13.84,13.84,0,0,0,3.6,4.55l16.32,15a66.6,66.6,0,0,1,6.32,6.57,31.44,31.44,0,0,1,4.88,8,26.17,26.17,0,0,1,1.92,10.39q0,7.85-3.2,13.12a19.85,19.85,0,0,1-9,7.92A32,32,0,0,1,339.9,396.39Z"/><path class="cls-1" d="M378.78,395.11V265.51H395.9v46.73a49.85,49.85,0,0,1,10.4-7.69,26,26,0,0,1,12.8-3.2c3.63,0,6.43,1,8.4,2.89a15.59,15.59,0,0,1,4.16,7.19,32.84,32.84,0,0,1,1.2,8.81v74.87H415.74V325.19a16.72,16.72,0,0,0-1.44-7.68q-1.44-2.72-5.92-2.72a13.43,13.43,0,0,0-6.32,1.76,32.92,32.92,0,0,0-6.16,4.32v74.24Z"/><path class="cls-1" d="M449.82,395V265.35h17.12v77.28l25-40h17.92l-21.76,36.16,21.12,56.32H492.06l-17.28-47.36-7.84,11.84V395Z"/><path class="cls-1" d="M534.78,396.39a15.55,15.55,0,0,1-9.6-3.12,21.79,21.79,0,0,1-6.56-8,23.06,23.06,0,0,1-2.4-10.32,33.12,33.12,0,0,1,2.88-14.56,29.11,29.11,0,0,1,7.92-10,54.59,54.59,0,0,1,11.68-7.12q6.63-3,14-5.92v-6.56a56.49,56.49,0,0,0-.64-9.28,9.45,9.45,0,0,0-2.64-5.51q-2-1.85-6-1.84a9.35,9.35,0,0,0-5.68,1.59,8.9,8.9,0,0,0-3.12,4.57,22.57,22.57,0,0,0-1,6.95v4.65l-17-.65q.31-15.36,7-22.64t20.8-7.28q13.76,0,19.52,7.52t5.76,21.76v42.24c0,2.88.08,5.66.24,8.32s.37,5.15.64,7.44.5,4.46.72,6.48H555.74q-.48-2.55-1.2-6.48t-1-7.12a24.6,24.6,0,0,1-6.16,10.16Q542.78,396.4,534.78,396.39Zm6.72-14.72a8.8,8.8,0,0,0,4.8-1.43,22.55,22.55,0,0,0,4-3.29,17.35,17.35,0,0,0,2.4-2.95V347.75q-4,2.25-7.52,4.49A41.32,41.32,0,0,0,539,357a19.19,19.19,0,0,0-4.16,5.6,16,16,0,0,0-1.52,7.12q0,5.61,2.08,8.8A6.79,6.79,0,0,0,541.5,381.67Z"/><line class="cls-6" x1="448.31" y1="464.2" x2="574.31" y2="464.2"/><line class="cls-6" x1="23.81" y1="464.2" x2="138.81" y2="464.2"/></g></svg>
